<svg xmlns="http://www.w3.org/2000/svg" version="1.1" xmlns:xlink="http://www.w3.org/1999/xlink" xmlns:svgjs="http://svgjs.dev/svgjs" width="2000" height="2101" viewBox="0 0 2000 2101"><g transform="matrix(1,0,0,1,-1.5952806638611037,-3.388709677419456)"><svg viewBox="0 0 236 248" data-background-color="#ffffff" preserveAspectRatio="xMidYMid meet" height="2101" width="2000" xmlns="http://www.w3.org/2000/svg" xmlns:xlink="http://www.w3.org/1999/xlink"><g id="tight-bounds" transform="matrix(1,0,0,1,0.18824311833560614,0.4000000000000057)"><svg viewBox="0 0 235.62351376332876 247.2" height="247.2" width="235.62351376332876"><g><svg viewBox="0 0 395.52 414.9524062280443" height="247.2" width="235.62351376332876"><g transform="matrix(1,0,0,1,0,264.2839933900476)"><svg viewBox="0 0 395.52 150.6684128379967" height="150.6684128379967" width="395.52"><g id="textblocktransform"><svg viewBox="0 0 395.52 150.6684128379967" height="150.6684128379967" width="395.52" id="textblock"><g><svg viewBox="0 0 395.52 91.06017709923664" height="91.06017709923664" width="395.52"><g transform="matrix(1,0,0,1,0,0)"><svg width="395.52" viewBox="1.85 -37.5 163.74 37.7" height="91.06017709923664" data-palette-color="#2257bf"><g class="wordmark-text-0" data-fill-palette-color="primary" id="text-0"><path d="M5.35 0L5.35-28.2Q5.35-31.35 6.68-33.38 8-35.4 10.1-36.38 12.2-37.35 14.5-37.35L14.5-37.35Q15.7-37.35 16.93-37.02 18.15-36.7 19.2-36.15L19.2-36.15 18-31.75Q17.3-32.05 16.43-32.33 15.55-32.6 14.65-32.6L14.65-32.6Q13.7-32.6 12.88-32.23 12.05-31.85 11.55-31.03 11.05-30.2 11.05-28.9L11.05-28.9 11.05 0 5.35 0ZM1.85-21.5L1.85-25.6 18-25.6 18-21.5 1.85-21.5ZM22 0L22-26.55 27.7-26.55 27.7 0 22 0ZM24.85-37.5L24.85-37.5Q26.3-37.5 27.25-36.55 28.2-35.6 28.2-34.15L28.2-34.15Q28.2-32.75 27.25-31.78 26.3-30.8 24.85-30.8L24.85-30.8Q23.45-30.8 22.47-31.78 21.5-32.75 21.5-34.15L21.5-34.15Q21.5-35.6 22.47-36.55 23.45-37.5 24.85-37.5ZM53.44-24.15L51.34-20.1Q49.59-21.15 47.52-21.78 45.44-22.4 43.69-22.4L43.69-22.4Q41.99-22.4 40.89-21.75 39.79-21.1 39.79-19.6L39.79-19.6Q39.79-18.35 40.82-17.63 41.84-16.9 43.44-16.4 45.05-15.9 46.84-15.35 48.64-14.8 50.27-13.93 51.89-13.05 52.89-11.55 53.89-10.05 53.89-7.6L53.89-7.6Q53.89-4.9 52.47-3.18 51.05-1.45 48.72-0.63 46.39 0.2 43.69 0.2L43.69 0.2Q40.79 0.2 37.89-0.75 34.99-1.7 32.99-3.5L32.99-3.5 35.04-7.4Q36.79-5.85 39.29-4.98 41.8-4.1 43.94-4.1L43.94-4.1Q45.19-4.1 46.17-4.42 47.14-4.75 47.72-5.4 48.3-6.05 48.3-7.1L48.3-7.1Q48.3-8.5 47.3-9.3 46.3-10.1 44.69-10.63 43.09-11.15 41.29-11.68 39.49-12.2 37.92-13.05 36.34-13.9 35.34-15.35 34.34-16.8 34.34-19.2L34.34-19.2Q34.34-21.9 35.74-23.58 37.14-25.25 39.37-26.03 41.59-26.8 44.14-26.8L44.14-26.8Q46.64-26.8 49.14-26.1 51.64-25.4 53.44-24.15L53.44-24.15ZM79.69 0L79.69-15Q79.69-18.1 77.99-19.88 76.29-21.65 73.29-21.65L73.29-21.65Q69.74-21.6 67.72-19.15 65.69-16.7 65.69-13.05L65.69-13.05 64.09-13.05Q64.09-18 65.49-21 66.89-24 69.47-25.38 72.04-26.75 75.54-26.75L75.54-26.75Q78.64-26.75 80.87-25.5 83.09-24.25 84.27-21.98 85.44-19.7 85.44-16.5L85.44-16.5 85.44 0 79.69 0ZM59.94 0L59.94-37.1 65.69-37.1 65.69 0 59.94 0ZM93.14 0L93.14-26.55 98.84-26.55 98.84 0 93.14 0ZM95.99-37.5L95.99-37.5Q97.44-37.5 98.39-36.55 99.34-35.6 99.34-34.15L99.34-34.15Q99.34-32.75 98.39-31.78 97.44-30.8 95.99-30.8L95.99-30.8Q94.59-30.8 93.61-31.78 92.64-32.75 92.64-34.15L92.64-34.15Q92.64-35.6 93.61-36.55 94.59-37.5 95.99-37.5ZM127.04 0L127.04-15Q127.04-18.1 125.34-19.88 123.64-21.65 120.64-21.65L120.64-21.65Q117.09-21.6 115.06-19.15 113.04-16.7 113.04-13.05L113.04-13.05 111.44-13.05Q111.44-18 112.84-21 114.24-24 116.81-25.38 119.39-26.75 122.89-26.75L122.89-26.75Q125.99-26.75 128.21-25.5 130.44-24.25 131.61-21.98 132.79-19.7 132.79-16.5L132.79-16.5 132.79 0 127.04 0ZM107.34 0L107.34-26.55 113.09-26.55 113.09 0 107.34 0ZM140.74 0L140.74-37.1 146.49-37.1 146.49 0 140.74 0ZM146.04-13.9L158.24-26.55 164.84-26.55 146.04-7.05 146.04-13.9ZM150.19-13.65L154.44-17.1 165.59 0 158.79 0 150.19-13.65Z" fill="#2257bf" data-fill-palette-color="primary"></path></g></svg></g></svg></g><g transform="matrix(1,0,0,1,75.54432,112.55729946811603)"><svg viewBox="0 0 244.43135999999998 38.111113369880684" height="38.111113369880684" width="244.43135999999998"><g transform="matrix(1,0,0,1,0,0)"><svg width="244.43135999999998" viewBox="0.65 -39.3 310.06 48.349999999999994" height="38.111113369880684" data-palette-color="#2257bf"><path d="M5.85 0L2.1 0 16.45-35.85 21.35-35.85 35.7 0 31.95 0Q31.3 0 30.9-0.33 30.5-0.65 30.3-1.15L30.3-1.15 19.95-27.9Q19.7-28.6 19.43-29.43 19.15-30.25 18.9-31.25L18.9-31.25Q18.6-30.25 18.35-29.4 18.1-28.55 17.85-27.85L17.85-27.85 7.5-1.15Q7.35-0.7 6.93-0.35 6.5 0 5.85 0L5.85 0ZM8.45 0L5.8 0 5.8-3.1 8.45-3.1 8.45 0ZM27.7-10.6L10.25-10.6 11.6-14.1 26.35-14.1 27.7-10.6ZM32.15 0L29.5 0 29.5-3.1 32.15-3.1 32.15 0ZM5.75 0L0.65 0 0.65-2.05Q0.65-2.5 0.85-2.78 1.05-3.05 1.45-3.1L1.45-3.1 5.2-3.9 5.75 0ZM11.1 0L6 0 6.55-3.9 10.3-3.1Q10.7-3.05 10.9-2.78 11.1-2.5 11.1-2.05L11.1-2.05 11.1 0ZM31.8 0L26.7 0 26.7-2.05Q26.7-2.5 26.9-2.78 27.1-3.05 27.5-3.1L27.5-3.1 31.25-3.9 31.8 0ZM37.15 0L32.05 0 32.6-3.9 36.35-3.1Q36.75-3.05 36.95-2.78 37.15-2.5 37.15-2.05L37.15-2.05 37.15 0ZM47.25 0L42.8 0 42.8-25.35 47.25-25.35 47.25 0ZM44.3 0L39.2 0 39.2-2.05Q39.2-2.5 39.4-2.78 39.6-3.05 40-3.1L40-3.1 43.75-3.9 44.3 0ZM50.85 0L45.75 0 46.3-3.9 50.05-3.1Q50.45-3.05 50.65-2.78 50.85-2.5 50.85-2.05L50.85-2.05 50.85 0ZM39.2-25.35L44.3-25.35 43.75-21.45 40-22.25Q39.6-22.35 39.4-22.6 39.2-22.85 39.2-23.3L39.2-23.3 39.2-25.35ZM44.95-30.15L44.95-30.15Q43.7-30.15 42.75-31.1 41.8-32.05 41.8-33.3L41.8-33.3Q41.8-34.6 42.75-35.55 43.7-36.5 44.95-36.5L44.95-36.5Q46.25-36.5 47.2-35.55 48.15-34.6 48.15-33.3L48.15-33.3Q48.15-32.05 47.2-31.1 46.25-30.15 44.95-30.15ZM74.44 0.4L74.44 0.4Q72.64 0.4 70.42 0 68.19-0.4 66.59-1L66.59-1 66.59-4.7 68.79-4.2Q69.44-3.75 70.87-3.28 72.29-2.8 74.19-2.8L74.19-2.8Q77.04-2.8 78.39-3.98 79.74-5.15 79.74-6.85L79.74-6.85Q79.74-8.35 78.84-9.15 77.94-9.95 76.44-10.45 74.94-10.95 73.19-11.5L73.19-11.5Q71.39-12.1 69.89-12.9 68.39-13.7 67.49-14.98 66.59-16.25 66.59-18.2L66.59-18.2Q66.59-20.45 67.77-22.15 68.94-23.85 70.97-24.8 72.99-25.75 75.54-25.75L75.54-25.75Q76.99-25.75 78.77-25.4 80.54-25.05 82.64-24.35L82.64-24.35 82.64-21.35 79.99-21.7Q78.94-22 77.87-22.2 76.79-22.4 75.79-22.4L75.79-22.4Q74.34-22.4 73.22-21.95 72.09-21.5 71.44-20.7 70.79-19.9 70.79-18.85L70.79-18.85Q70.79-17.45 71.87-16.63 72.94-15.8 74.49-15.3 76.04-14.8 77.44-14.35L77.44-14.35Q79.09-13.85 80.57-13.05 82.04-12.25 82.99-10.95 83.94-9.65 83.94-7.55L83.94-7.55Q83.94-5.3 82.77-3.5 81.59-1.7 79.47-0.65 77.34 0.4 74.44 0.4ZM79.94-18.65L79.44-22.4 82.64-21.75 82.64-17.85 80.99-17.85Q80.49-17.85 80.24-18.07 79.99-18.3 79.94-18.65L79.94-18.65ZM69.29-6.8L69.79-3.05 66.59-3.7 66.59-7.6 68.24-7.6Q68.79-7.6 69.02-7.38 69.24-7.15 69.29-6.8L69.29-6.8ZM99.59-25.75L99.59-25.75Q103.39-25.75 106.07-24.13 108.74-22.5 110.19-19.55 111.64-16.6 111.64-12.7L111.64-12.7Q111.64-8.8 110.19-5.85 108.74-2.9 106.07-1.28 103.39 0.35 99.59 0.35L99.59 0.35Q95.89 0.35 93.17-1.28 90.44-2.9 88.97-5.85 87.49-8.8 87.49-12.7L87.49-12.7Q87.49-16.6 88.97-19.55 90.44-22.5 93.17-24.13 95.89-25.75 99.59-25.75ZM99.59-3.15L99.59-3.15Q103.34-3.15 105.19-5.65 107.04-8.15 107.04-12.65L107.04-12.65Q107.04-15.7 106.22-17.82 105.39-19.95 103.74-21.1 102.09-22.25 99.59-22.25L99.59-22.25Q97.04-22.25 95.37-21.08 93.69-19.9 92.89-17.75 92.09-15.6 92.09-12.65L92.09-12.65Q92.09-8.3 93.94-5.73 95.79-3.15 99.59-3.15ZM103.99-21.5L103.99-21.5 103.99-23.5Q106.24-23.5 107.54-24.43 108.84-25.35 108.84-26.75L108.84-26.75Q108.84-27.3 108.54-27.73 108.24-28.15 107.94-28.58 107.64-29 107.64-29.6L107.64-29.6Q107.64-30.55 108.24-31.05 108.84-31.55 110.14-31.55L110.14-31.55 112.44-31.55Q112.59-31.05 112.67-30.38 112.74-29.7 112.74-29L112.74-29Q112.74-26.65 111.69-24.98 110.64-23.3 108.67-22.4 106.69-21.5 103.99-21.5ZM99.59 9.05L99.59 9.05Q98.39 9.05 97.57 8.22 96.74 7.4 96.74 6.2L96.74 6.2Q96.74 5 97.57 4.2 98.39 3.4 99.59 3.35L99.59 3.35Q100.74 3.3 101.59 4.15 102.44 5 102.44 6.2L102.44 6.2Q102.44 7.4 101.59 8.22 100.74 9.05 99.59 9.05ZM137.24 0.4L137.24 0.4Q134.24 0.4 132.61-1.28 130.99-2.95 130.99-6.1L130.99-6.1 130.99-21.6 127.94-21.6Q127.54-21.6 127.26-21.85 126.99-22.1 126.99-22.6L126.99-22.6 126.99-24.35 131.14-24.9 132.19-32.7Q132.28-33.55 133.19-33.55L133.19-33.55 135.44-33.55 135.44-24.85 142.69-24.85 142.69-21.6 135.44-21.6 135.44-6.4Q135.44-4.8 136.21-4.03 136.99-3.25 138.24-3.25L138.24-3.25Q138.78-3.25 139.44-3.55 140.09-3.85 140.64-4.15 141.19-4.45 141.44-4.45L141.44-4.45Q141.78-4.45 142.03-4.05L142.03-4.05 143.34-1.9Q142.19-0.85 140.56-0.23 138.94 0.4 137.24 0.4ZM153.93 0L149.48 0 149.48-36.85 153.93-36.85 153.93-21.95Q155.58-23.65 157.56-24.7 159.53-25.75 162.08-25.75L162.08-25.75Q164.88-25.75 166.76-24.55 168.63-23.35 169.61-21.18 170.58-19 170.58-16.15L170.58-16.15 170.58 0 166.13 0 166.13-16.15Q166.13-19 164.81-20.6 163.48-22.2 160.78-22.2L160.78-22.2Q158.83-22.2 157.11-21.25 155.38-20.3 153.93-18.65L153.93-18.65 153.93 0ZM174.18 0L169.08 0 169.63-3.9 173.38-3.1Q173.78-3.05 173.98-2.78 174.18-2.5 174.18-2.05L174.18-2.05 174.18 0ZM150.98 0L145.88 0 145.88-2.05Q145.88-2.5 146.08-2.78 146.28-3.05 146.68-3.1L146.68-3.1 150.43-3.9 150.98 0ZM145.88-36.85L150.98-36.85 150.43-32.95 146.68-33.75Q146.28-33.85 146.08-34.1 145.88-34.35 145.88-34.8L145.88-34.8 145.88-36.85ZM157.53 0L152.43 0 152.98-3.9 156.73-3.1Q157.13-3.05 157.33-2.78 157.53-2.5 157.53-2.05L157.53-2.05 157.53 0ZM184.28 0L179.83 0 179.83-25.35 184.28-25.35 184.28 0ZM181.33 0L176.23 0 176.23-2.05Q176.23-2.5 176.43-2.78 176.63-3.05 177.03-3.1L177.03-3.1 180.78-3.9 181.33 0ZM187.88 0L182.78 0 183.33-3.9 187.08-3.1Q187.48-3.05 187.68-2.78 187.88-2.5 187.88-2.05L187.88-2.05 187.88 0ZM176.23-25.35L181.33-25.35 180.78-21.45 177.03-22.25Q176.63-22.35 176.43-22.6 176.23-22.85 176.23-23.3L176.23-23.3 176.23-25.35ZM179.58-29.8L173.73-36.25 177.98-36.25Q178.78-36.25 179.18-35.98 179.58-35.7 179.93-35.15L179.93-35.15 183.68-29.1 181.13-29.1Q180.58-29.1 180.26-29.25 179.93-29.4 179.58-29.8L179.58-29.8ZM212.83 0.35L212.83 0.35Q209.72 0.35 207.58-1.25 205.43-2.85 204.33-5.78 203.22-8.7 203.22-12.6L203.22-12.6Q203.22-16.3 204.53-19.28 205.83-22.25 208.3-24.03 210.78-25.8 214.18-25.8L214.18-25.8Q216.53-25.8 218.18-25 219.83-24.2 221.13-22.8L221.13-22.8 221.13-36.85 225.58-36.85 225.58 0 222.93 0Q221.93 0 221.73-0.95L221.73-0.95 221.33-4Q219.68-2.05 217.6-0.85 215.53 0.35 212.83 0.35ZM214.28-3.25L214.28-3.25Q216.47-3.25 218.1-4.25 219.72-5.25 221.13-7.1L221.13-7.1 221.13-19.35Q219.88-21 218.43-21.65 216.97-22.3 215.18-22.3L215.18-22.3Q212.83-22.3 211.18-21.18 209.53-20.05 208.68-17.88 207.83-15.7 207.83-12.6L207.83-12.6Q207.83-8.05 209.38-5.65 210.93-3.25 214.28-3.25ZM217.53-36.85L222.63-36.85 222.08-32.95 218.33-33.75Q217.93-33.85 217.72-34.1 217.53-34.35 217.53-34.8L217.53-34.8 217.53-36.85ZM229.18 0L224.08 0 224.63-3.9 228.38-3.1Q228.78-3.05 228.98-2.78 229.18-2.5 229.18-2.05L229.18-2.05 229.18 0ZM230.78-27.55L216.43-27.55 216.43-30.45 230.78-30.45 230.78-27.55ZM239.52 0L235.07 0 235.07-25.35 239.52-25.35 239.52 0ZM236.57 0L231.47 0 231.47-2.05Q231.47-2.5 231.67-2.78 231.87-3.05 232.27-3.1L232.27-3.1 236.02-3.9 236.57 0ZM243.12 0L238.02 0 238.57-3.9 242.32-3.1Q242.72-3.05 242.92-2.78 243.12-2.5 243.12-2.05L243.12-2.05 243.12 0ZM231.47-25.35L236.57-25.35 236.02-21.45 232.27-22.25Q231.87-22.35 231.67-22.6 231.47-22.85 231.47-23.3L231.47-23.3 231.47-25.35ZM237.22-30.15L237.22-30.15Q235.97-30.15 235.02-31.1 234.07-32.05 234.07-33.3L234.07-33.3Q234.07-34.6 235.02-35.55 235.97-36.5 237.22-36.5L237.22-36.5Q238.52-36.5 239.47-35.55 240.42-34.6 240.42-33.3L240.42-33.3Q240.42-32.05 239.47-31.1 238.52-30.15 237.22-30.15ZM273.72 0L269.72 0 259.37-25.35 263.02-25.35Q263.57-25.35 263.92-25.08 264.27-24.8 264.42-24.4L264.42-24.4 270.82-8.1Q271.07-7.45 271.29-6.6 271.52-5.75 271.77-4.55L271.77-4.55Q271.97-5.4 272.19-6.3 272.42-7.2 272.77-8.1L272.77-8.1 279.27-24.4Q279.42-24.8 279.74-25.08 280.07-25.35 280.57-25.35L280.57-25.35 284.07-25.35 273.72 0ZM266.22-24.1L262.47-24.1 262.47-25.35 266.22-25.35 266.22-24.1ZM281.77-24.1L278.02-24.1 278.02-25.35 281.77-25.35 281.77-24.1ZM257.67-25.35L262.77-25.35 262.22-21.45 258.47-22.25Q258.07-22.35 257.87-22.6 257.67-22.85 257.67-23.3L257.67-23.3 257.67-25.35ZM263.92-25.35L269.02-25.35 269.02-23.3Q269.02-22.85 268.82-22.6 268.62-22.35 268.22-22.25L268.22-22.25 264.47-21.45 263.92-25.35ZM274.42-25.35L279.52-25.35 278.97-21.45 275.22-22.25Q274.82-22.35 274.62-22.6 274.42-22.85 274.42-23.3L274.42-23.3 274.42-25.35ZM280.67-25.35L285.77-25.35 285.77-23.3Q285.77-22.85 285.57-22.6 285.37-22.35 284.97-22.25L284.97-22.25 281.22-21.45 280.67-25.35ZM300.46 0.35L300.46 0.35Q296.81 0.35 294.09-1.3 291.36-2.95 289.86-6 288.36-9.05 288.36-13.2L288.36-13.2Q288.36-16.75 289.81-19.6 291.26-22.45 293.94-24.1 296.61-25.75 300.21-25.75L300.21-25.75Q303.36-25.75 305.71-24.35 308.06-22.95 309.39-20.43 310.71-17.9 310.71-14.4L310.71-14.4Q310.71-13.35 310.49-13 310.26-12.65 309.61-12.65L309.61-12.65 292.76-12.65Q292.76-12.5 292.76-12.33 292.76-12.15 292.76-12L292.76-12Q293.01-7.8 295.11-5.48 297.21-3.15 300.81-3.15L300.81-3.15Q302.36-3.15 303.89-3.78 305.41-4.4 306.59-5 307.76-5.6 308.26-5.6L308.26-5.6Q308.81-5.6 309.11-5.2L309.11-5.2 310.36-3.55Q309.36-2.25 307.69-1.38 306.01-0.5 304.11-0.08 302.21 0.35 300.46 0.35ZM292.91-15.45L292.91-15.45 306.71-15.45Q306.71-18.55 305.01-20.5 303.31-22.45 300.31-22.45L300.31-22.45Q297.06-22.45 295.21-20.6 293.36-18.75 292.91-15.45ZM297.36-36.1L295.11-33.35 290.71-39.3 294.06-39.3Q294.86-39.3 295.29-39.03 295.71-38.75 296.06-38.2L296.06-38.2 297.36-36.1ZM295.66-29.25L292.56-29.25 298.16-35.85 302.31-35.85 307.86-29.25 304.91-29.25Q304.31-29.25 303.91-29.6L303.91-29.6 300.26-33.15 296.66-29.6Q296.51-29.45 296.24-29.35 295.96-29.25 295.66-29.25L295.66-29.25Z" opacity="1" transform="matrix(1,0,0,1,0,0)" fill="#2257bf" class="slogan-text-1" data-fill-palette-color="secondary" id="text-1"></path></svg></g></svg></g></svg></g></svg></g><g transform="matrix(1,0,0,1,87.11512567385556,0)"><svg viewBox="0 0 221.28974865228886 221.28974865228886" height="221.28974865228886" width="221.28974865228886"><g><svg></svg></g><g id="icon-0"><svg viewBox="0 0 221.28974865228886 221.28974865228886" height="221.28974865228886" width="221.28974865228886"><g><path d="M0 110.645c0-61.107 49.537-110.645 110.645-110.645 61.107 0 110.645 49.537 110.645 110.645 0 61.107-49.537 110.645-110.645 110.645-61.107 0-110.645-49.537-110.645-110.645zM110.645 213.078c56.572 0 102.433-45.861 102.433-102.433 0-56.572-45.861-102.433-102.433-102.433-56.572 0-102.433 45.861-102.433 102.433 0 56.572 45.861 102.433 102.433 102.433z" data-fill-palette-color="accent" fill="#2257bf" stroke="transparent"></path></g><g transform="matrix(1,0,0,1,52.15973421622501,60.064397529133146)"><svg viewBox="0 0 116.97028021983884 101.16095359402257" height="101.16095359402257" width="116.97028021983884"><g><svg xmlns="http://www.w3.org/2000/svg" xmlns:xlink="http://www.w3.org/1999/xlink" version="1.1" x="0" y="0" viewBox="0 5.425 100.105 86.57513037069805" enable-background="new 0 0 100 100" xml:space="preserve" id="dxe-0" width="116.97028021983884" height="101.16095359402257" class="icon-dxe-0" data-fill-palette-color="accent"><g fill="#2257bf" data-fill-palette-color="accent"><path fill-rule="evenodd" clip-rule="evenodd" d="M99.577 60.995C99.577 61.458 99.509 61.748 99.363 61.865A26 26 0 0 0 98.36 62.737C97.254 63.664 96.003 64.757 94.612 66.001A91 91 0 0 1 90.208 69.7 65 65 0 0 1 85.499 73.101C83.902 74.146 82.347 74.955 80.832 75.536 80.603 75.654 80.016 75.875 79.09 76.193 78.156 76.51 77.174 76.878 76.123 77.279 75.079 77.687 74.091 78.066 73.156 78.413 72.229 78.765 71.65 78.966 71.414 79.021 71.068 79.194 70.411 79.533 69.457 80.024 68.496 80.515 67.494 81.054 66.442 81.635A95 95 0 0 1 63.434 83.245C62.48 83.742 61.824 84.102 61.477 84.337 60.544 84.918 59.618 85.645 58.685 86.516A76 76 0 0 1 55.849 89.04 18 18 0 0 1 52.841 91.127 6.9 6.9 0 0 1 49.439 92C48.686 92 48.25 91.827 48.132 91.481 48.015 91.127 47.96 90.609 47.96 89.911 47.96 88.114 48.249 86.386 48.83 84.725 49.411 83.073 49.701 81.371 49.701 79.629H48.657C48.594 79.629 48.076 79.794 47.088 80.113 46.099 80.43 44.909 80.803 43.513 81.24 42.117 81.676 40.706 82.132 39.282 82.594 37.857 83.058 36.681 83.438 35.749 83.728A24.7 24.7 0 0 0 31.613 85.554 123 123 0 0 1 27.471 87.732 36 36 0 0 1 23.281 89.516 12.9 12.9 0 0 1 18.926 90.256C18.165 90.256 17.384 90.229 16.569 90.173 15.759 90.11 15.116 89.709 14.653 88.949V86.95C14.653 86.016 14.735 85.208 14.916 84.51 15.089 83.811 15.323 83.126 15.614 82.463 15.904 81.792 16.222 81.101 16.569 80.374 16.921 79.648 17.266 78.819 17.62 77.886 17.965 76.958 18.227 76.115 18.401 75.362A23 23 0 0 0 18.796 73.184C18.878 72.492 18.927 71.766 18.927 71.006V67.611C18.927 67.203 18.913 66.829 18.878 66.477A63 63 0 0 0 18.796 65.523C18.768 65.232 18.746 65.059 18.746 64.997L18.227 64.472C17.875 64.763 17.294 65.301 16.486 66.09 15.67 66.871 14.798 67.701 13.865 68.572 12.938 69.443 12.052 70.265 11.21 71.054 10.366 71.835 9.771 72.374 9.419 72.665 8.492 73.474 7.372 74.275 6.065 75.058 4.757 75.845 3.458 76.233 2.186 76.233A7.6 7.6 0 0 1 0.657 76.102C0.221 76.021 0 75.626 0 74.928 0 74.873 0.014 74.782 0.049 74.665 0.076 74.555 0.09 74.465 0.09 74.409 1.425 73.248 2.517 71.995 3.361 70.661A39 39 0 0 0 5.63 66.526C6.293 65.101 6.965 63.677 7.635 62.253A33 33 0 0 1 10.028 58.029V57.765C10.028 57.246 9.827 56.88 9.42 56.679 9.012 56.479 8.812 56.084 8.812 55.504V54.55C8.812 54.316 8.839 53.921 8.895 53.367 8.957 52.821 9.026 52.24 9.116 51.625 9.207 51.017 9.276 50.437 9.338 49.89 9.394 49.337 9.421 48.943 9.421 48.707 9.538 48.597 9.739 48.389 10.029 48.099S10.5 47.609 10.554 47.491C10.61 47.491 10.644 47.402 10.644 47.228 10.644 47.055 10.61 46.938 10.554 46.882 10.499 46.529 10.319 45.955 10.029 45.14A74 74 0 0 1 9.157 42.526 70 70 0 0 0 8.287 39.913 90 90 0 0 1 7.679 38.17 10 10 0 0 0 6.849 36.428C6.531 35.909 6.212 35.384 5.888 34.865A14 14 0 0 1 5.065 33.296C4.831 32.771 4.712 32.162 4.712 31.463V29.984C5.12 29.63 5.5 29.444 5.847 29.417 6.199 29.39 6.6 29.376 7.071 29.376 8.522 29.376 9.871 29.748 11.123 30.51A45 45 0 0 1 14.656 32.861C14.947 33.089 15.452 33.483 16.177 34.037 16.909 34.583 17.678 35.164 18.493 35.779 19.303 36.387 20.076 36.968 20.802 37.521 21.53 38.067 22.033 38.461 22.323 38.697H24.853C24.853 38.407 24.839 37.867 24.812 37.086 24.785 36.298 24.756 35.488 24.722 34.646 24.695 33.802 24.667 32.993 24.639 32.205 24.612 31.424 24.591 30.884 24.591 30.595A7.6 7.6 0 0 1 25.379 27.634C25.842 26.708 26.34 25.788 26.858 24.89 27.383 23.991 27.847 23.057 28.254 22.104A7.8 7.8 0 0 0 28.863 19.012C28.863 17.734 28.475 16.731 27.686 16.004 26.906 15.278 25.957 14.726 24.851 14.352A19 19 0 0 0 21.367 13.522 53 53 0 0 1 18.227 12.998C17.993 12.941 17.661 12.68 17.225 12.216S16.54 11.435 16.486 11.262C16.25 10.618 16.45 10.038 17.093 9.519 17.73 8.994 18.649 8.518 19.838 8.081A37 37 0 0 1 23.766 6.906 46 46 0 0 1 27.86 6.075C29.167 5.875 30.287 5.709 31.22 5.598 32.146 5.481 32.672 5.425 32.789 5.425 38.079 5.425 43.237 6.193 48.265 7.728A44.8 44.8 0 0 1 62.087 14.74C62.204 14.857 62.494 15.064 62.958 15.355 63.421 15.645 63.712 15.846 63.828 15.963 65.807 17.063 67.784 18.127 69.762 19.143A131 131 0 0 1 75.557 22.318 58 58 0 0 1 81.053 25.976 36 36 0 0 1 86.067 30.595 43.4 43.4 0 0 1 91.688 38.346 105 105 0 0 1 96.003 46.885C96.356 47.639 96.764 48.378 97.227 49.105 97.691 49.832 98.14 50.557 98.577 51.284 99.012 52.01 99.378 52.763 99.668 53.552 99.959 54.333 100.105 55.128 100.105 55.945V56.816A12 12 0 0 1 99.538 56.511C99.275 56.366 99.088 56.289 98.971 56.289A0.4 0.4 0 0 1 98.799 56.248 0.4 0.4 0 0 0 98.625 56.206 0.4 0.4 0 0 0 98.452 56.248C98.39 56.275 98.362 56.289 98.362 56.289 98.307 56.289 98.204 56.366 98.058 56.511L97.753 56.816V57.162C97.753 57.515 97.85 57.833 98.058 58.123 98.258 58.413 98.465 58.704 98.665 58.994 98.866 59.285 99.073 59.589 99.274 59.907 99.48 60.22 99.577 60.587 99.577 60.995" fill="#2257bf" data-fill-palette-color="accent"></path></g></svg></g></svg></g></svg></g></svg></g><g></g></svg></g><defs></defs></svg><rect width="235.62351376332876" height="247.2" fill="none" stroke="none" visibility="hidden"></rect></g></svg></g></svg>